HIERARCHY
ROOT Hips
{
 OFFSET 0.000000 0.000000 0.000000
 CHANNELS 6 Xposition Yposition Zposition Yrotation Xrotation Zrotation
 JOINT Chest
 {
  OFFSET 0.000000 10.452742 -1.161416
  CHANNELS 3 Yrotation Xrotation Zrotation
  JOINT Chest2
  {
   OFFSET 0.000000 11.642015 0.000000
   CHANNELS 3 Yrotation Xrotation Zrotation
   JOINT Chest3
   {
    OFFSET 0.000000 10.628653 0.003331
    CHANNELS 3 Yrotation Xrotation Zrotation
    JOINT Chest4
    {
     OFFSET 0.000000 10.616789 0.003334
     CHANNELS 3 Yrotation Xrotation Zrotation
     JOINT Neck
     {
      OFFSET 0.000000 14.863263 0.000000
      CHANNELS 3 Yrotation Xrotation Zrotation
      JOINT Head
      {
       OFFSET 0.000000 9.883432 -0.007164
       CHANNELS 3 Yrotation Xrotation Zrotation
       End Site
       {
        OFFSET 0.000000 18.374284 -0.000963
       }
      }
     }
     JOINT RightCollar
     {
      OFFSET -3.226349 8.329632 0.000000
      CHANNELS 3 Yrotation Xrotation Zrotation
      JOINT RightShoulder
      {
       OFFSET -15.005172 0.000000 0.000000
       CHANNELS 3 Yrotation Xrotation Zrotation
       JOINT RightElbow
       {
        OFFSET -32.060772 0.000000 0.000000
        CHANNELS 3 Yrotation Xrotation Zrotation
        JOINT RightWrist
        {
         OFFSET -26.219035 0.000000 0.000000
         CHANNELS 3 Yrotation Xrotation Zrotation
         End Site
         {
          OFFSET -19.605622 0.000000 0.000000
         }
        }
       }
      }
     }
     JOINT LeftCollar
     {
      OFFSET 3.226349 8.329632 0.000000
      CHANNELS 3 Yrotation Xrotation Zrotation
      JOINT LeftShoulder
      {
       OFFSET 15.005172 0.000000 0.000000
       CHANNELS 3 Yrotation Xrotation Zrotation
       JOINT LeftElbow
       {
        OFFSET 32.060772 0.000000 0.000000
        CHANNELS 3 Yrotation Xrotation Zrotation
        JOINT LeftWrist
        {
         OFFSET 26.219035 0.000000 0.000000
         CHANNELS 3 Yrotation Xrotation Zrotation
         End Site
         {
          OFFSET 19.605622 0.000000 0.000000
         }
        }
       }
      }
     }
    }
   }
  }
 }
 JOINT RightHip
 {
  OFFSET -8.580723 -0.006978 0.000775
  CHANNELS 3 Yrotation Xrotation Zrotation
  JOINT RightKnee
  {
   OFFSET 0.000000 -44.536629 0.000787
   CHANNELS 3 Yrotation Xrotation Zrotation
   JOINT RightAnkle
   {
    OFFSET 0.000000 -43.528603 0.001328
    CHANNELS 3 Yrotation Xrotation Zrotation
    JOINT RightToe
    {
     OFFSET 0.000000 -7.259351 16.426635
     CHANNELS 3 Yrotation Xrotation Zrotation
     End Site
     {
      OFFSET 0.000000 -1.634445 7.029403
     }
    }
   }
  }
 }
 JOINT LeftHip
 {
  OFFSET 8.580723 -0.009328 0.001036
  CHANNELS 3 Yrotation Xrotation Zrotation
  JOINT LeftKnee
  {
   OFFSET 0.000000 -44.536629 0.000787
   CHANNELS 3 Yrotation Xrotation Zrotation
   JOINT LeftAnkle
   {
    OFFSET 0.000000 -43.528603 0.001328
    CHANNELS 3 Yrotation Xrotation Zrotation
    JOINT LeftToe
    {
     OFFSET 0.000000 -7.259351 16.426635
     CHANNELS 3 Yrotation Xrotation Zrotation
     End Site
     {
      OFFSET 0.000000 -1.634445 7.029403
     }
    }
   }
  }
 }
}
MOTION
Frames: 7
Frame Time: 0.004167
0.000000 96.820495 0.000000 0.000000 6.340192 0.000000 0.000000 -6.340192 0.000000 0.000000 -5.826342 0.000000 0.000000 -0.005910 0.000000 0.000000 5.832252 0.000000 0.000000 12.610213 0.000000 0.000000 -9.243752 0.000000 0.000000 0.000000 0.000000 0.000000 0.000000 0.000000 2.309063 0.000000 0.000000 -2.309063 0.000000 0.000000 0.000000 0.000000 0.000000 0.000000 0.000000 0.000000 -2.309063 0.000000 0.000000 2.309063 0.000000 0.000000 0.000000 -3.591006 0.000000 0.000000 1.872585 0.000000 0.000000 -4.621771 0.000000 0.000000 0.000000 0.000000 0.000000 -3.587706 0.000000 0.000000 1.905768 0.000000 0.000000 -4.658254 0.000000 0.000000 0.000000 0.000000
0.033134 92.631043 -0.052773 -16.746926 11.495455 -7.474614 2.088359 1.364814 4.789111 0.697710 -5.194215 2.130832 0.694668 0.625803 2.201686 0.687462 6.306126 1.660601 -0.084410 25.168445 3.664306 -1.014142 10.785054 6.577393 -1.879160 -6.147853 12.708637 -12.352173 -10.248208 70.221870 14.446035 -4.271789 1.804458 -2.280936 2.573066 -9.086969 -3.132333 -7.700970 -9.504299 13.276904 -18.275524 -71.229823 -2.789476 4.851711 -4.230644 3.423915 6.340387 7.304026 0.737503 -0.883544 -2.222967 -1.405168 2.771701 0.574997 -5.856023 -14.444855 12.410105 -0.000000 -0.000000 0.000000 16.284286 -27.457063 16.319718 -1.795274 -4.474204 0.022173 11.817620 22.231961 -8.804545 -0.004300 -1.456754 0.338220
0.063392 92.630818 -0.107373 -16.778821 11.545972 -7.435883 2.099429 1.459992 4.743773 0.703902 -5.152075 2.109975 0.700897 0.667944 2.181478 0.690465 6.337783 1.645405 -0.148216 25.277893 3.725210 -1.136511 10.994240 6.699637 -1.853054 -6.160310 12.689727 -12.381043 -10.255252 70.227427 14.526558 -4.290804 1.799016 -2.300648 2.555841 -9.100107 -3.138683 -7.645637 -9.382316 13.513702 -18.225165 -71.329583 -2.417614 4.971092 -4.070127 3.776203 6.531176 7.173827 0.711252 -0.989102 -2.258797 -1.367751 2.779771 0.547798 -5.869112 -14.396963 12.419299 -0.000000 -0.000000 -0.000000 16.340588 -27.538967 16.283758 -1.811995 -4.463406 -0.074317 11.836630 22.271103 -8.748453 -0.004551 -1.482900 0.351614
0.092685 92.630271 -0.162931 -16.809279 11.594412 -7.397355 2.109012 1.556896 4.697880 0.709460 -5.109190 2.088855 0.706492 0.710829 2.160935 0.692966 6.369993 1.629950 -0.211232 25.387758 3.787432 -1.257745 11.204302 6.823685 -1.825248 -6.175958 12.671329 -12.406884 -10.262928 70.233743 14.602745 -4.312039 1.791948 -2.320768 2.539027 -9.113165 -3.145728 -7.591897 -9.258649 13.751082 -18.178733 -71.431717 -2.024560 5.085855 -3.898778 4.139982 6.730374 7.053852 0.685255 -1.093278 -2.292960 -1.331317 2.788875 0.520105 -5.882626 -14.349462 12.427912 -0.000000 -0.000000 0.000000 16.398160 -27.621460 16.248505 -1.831585 -4.450514 -0.171627 11.855700 22.310094 -8.692175 -0.004804 -1.509097 0.364705
0.121493 92.629565 -0.218969 -16.839006 11.641824 -7.358937 2.117751 1.654662 4.651691 0.714665 -5.065936 2.067593 0.711736 0.754079 2.140209 0.695189 6.402473 1.614349 -0.273551 25.497923 3.850461 -1.377878 11.415017 6.948667 -1.796632 -6.193217 12.653123 -12.431214 -10.270893 70.240482 14.676734 -4.334468 1.784066 -2.341112 2.522427 -9.126158 -3.152746 -7.538903 -9.134190 13.988556 -18.133814 -71.535483 -1.620856 5.197355 -3.720963 4.509241 6.935578 6.941301 0.659439 -1.196785 -2.326238 -1.295365 2.798495 0.492180 -5.896342 -14.302154 12.436216 -0.000000 0.000000 -0.000000 16.456448 -27.704215 16.213546 -1.852589 -4.436586 -0.269359 11.874839 22.349005 -8.635792 -0.005061 -1.535319 0.377646
0.150302 92.628859 -0.275007 -16.868706 11.689255 -7.320538 2.126292 1.752425 4.605468 0.719800 -5.022689 2.046310 0.716910 0.797320 2.119448 0.697357 6.434944 1.598716 -0.335277 25.608265 3.913785 -1.496960 11.626147 7.073715 -1.768097 -6.210506 12.634797 -12.455555 -10.278799 70.247321 14.750672 -4.357073 1.776178 -2.361494 2.505841 -9.139101 -3.159020 -7.485822 -9.009833 14.225611 -18.087995 -71.640110 -1.217054 5.307089 -3.541068 4.877962 7.144371 6.833154 0.633732 -1.300342 -2.359405 -1.259393 2.808115 0.464285 -5.910040 -14.254840 12.444486 -0.000000 0.000000 0.000000 16.514896 -27.786909 16.178473 -1.873551 -4.422680 -0.367111 11.894056 22.387906 -8.579384 -0.005323 -1.561538 0.390593
0.179594 92.628312 -0.330565 -16.899081 11.737755 -7.282067 2.135282 1.849321 4.559469 0.725149 -4.979825 2.025124 0.722295 0.840177 2.098803 0.699695 6.467123 1.583162 -0.396526 25.718658 3.976889 -1.615065 11.837445 7.197966 -1.740535 -6.226241 12.616050 -12.481432 -10.286289 70.253949 14.826709 -4.378843 1.769086 -2.381730 2.489070 -9.152010 -3.163843 -7.431827 -8.886476 14.461720 -18.038870 -71.744793 -0.823713 5.416707 -3.363491 5.240114 7.354340 6.726159 0.608068 -1.404666 -2.393235 -1.222901 2.817218 0.436684 -5.923498 -14.207320 12.452993 0.000000 -0.000000 0.000000 16.572949 -27.869220 16.142880 -1.893014 -4.409851 -0.464478 11.913362 22.426869 -8.523031 -0.005594 -1.587728 0.403699
